<?xml version="1.0" encoding="UTF-8"?>
<!DOCTYPE svg PUBLIC "-//W3C//DTD SVG 1.1//EN" "http://www.w3.org/Graphics/SVG/1.1/DTD/svg11.dtd">
<!-- Creator: CorelDRAW X5 -->
<svg xmlns="http://www.w3.org/2000/svg" xml:space="preserve" width="43.703mm" height="24.9783mm" style="shape-rendering:geometricPrecision; text-rendering:geometricPrecision; image-rendering:optimizeQuality; fill-rule:evenodd; clip-rule:evenodd"
viewBox="0 0 3941 2252"
 xmlns:xlink="http://www.w3.org/1999/xlink">
 <defs>
  <style type="text/css">
   <![CDATA[
    .fil0 {fill:none}
    .fil1 {fill:#FEFEFE}
   ]]>
  </style>
 </defs>
 <g id="Capa_x0020_1">
  <metadata id="CorelCorpID_0Corel-Layer"/>
  <rect class="fil0" width="3941" height="2252"/>
  <path class="fil1" d="M3237 366c187,0 338,151 338,338 0,187 -151,338 -338,338 -187,0 -338,-151 -338,-338 0,-187 151,-338 338,-338z"/>
  <path class="fil1" d="M2393 366c187,0 338,151 338,338 0,187 -151,338 -338,338 -187,0 -338,-151 -338,-338 0,-187 151,-338 338,-338z"/>
  <path class="fil1" d="M2392 1210c187,0 338,151 338,338 0,187 -151,338 -338,338 -187,0 -338,-151 -338,-338 0,-187 151,-338 338,-338z"/>
  <path class="fil1" d="M704 366c187,0 338,151 338,338 0,187 -151,338 -338,338 -187,0 -338,-151 -338,-338 0,-187 151,-338 338,-338z"/>
  <path class="fil1" d="M1548 1042c-187,0 -338,-151 -338,-338 0,-187 151,-338 338,-338 187,0 338,151 338,338 0,187 -151,338 -338,338z"/>
  <path class="fil1" d="M1548 1887c-187,0 -338,-151 -338,-338 0,-187 151,-338 338,-338 187,0 338,151 338,338 0,187 -151,338 -338,338z"/>
  <path class="fil1" d="M3237 1887c-187,0 -338,-151 -338,-338 0,-187 151,-338 338,-338 187,0 338,151 338,338 0,187 -151,338 -338,338z"/>
  <path class="fil1" d="M704 1887c-187,0 -338,-151 -338,-338 0,-187 151,-338 338,-338 187,0 338,151 338,338 0,187 -151,338 -338,338z"/>
 </g>
</svg>
